<svg xmlns="http://www.w3.org/2000/svg" viewBox="0 0 680 440" width="100%" role="img">
  <title>KWorks — Local-first AI Workspace</title>
  <desc>KWorks project cover in neon tech-comic style: three modules interconnected with prominent title</desc>

  <defs>
    <pattern id="grid" x="0" y="0" width="16" height="16" patternUnits="userSpaceOnUse">
      <rect x="0" y="0" width="16" height="16" fill="none"/>
      <circle cx="8" cy="8" r="0.5" fill="#B4B2A9" opacity="0.3"/>
    </pattern>
    <pattern id="lines" x="0" y="0" width="6" height="6" patternUnits="userSpaceOnUse">
      <line x1="0" y1="6" x2="6" y2="0" stroke="#D3D1C7" stroke-width="0.3" opacity="0.4"/>
    </pattern>
  </defs>

  <rect x="0" y="0" width="680" height="440" fill="url(#grid)"/>

  <rect x="0" y="0" width="680" height="125" fill="#26215C"/>
  <rect x="0" y="20" width="680" height="4" fill="#7F77DD" opacity="0.6"/>
  <rect x="0" y="105" width="680" height="4" fill="#7F77DD" opacity="0.6"/>

  <rect x="170" y="14" width="340" height="16" rx="3" fill="none" stroke="#7F77DD" stroke-width="0.5" opacity="0.3"/>
  <text x="340" y="26" text-anchor="middle" font-family="system-ui, -apple-system, sans-serif" font-size="10" fill="#AFA9EC" letter-spacing="4">PROJECT COVER</text>

  <text x="340" y="82" text-anchor="middle" font-family="system-ui, -apple-system, sans-serif" font-size="52" font-weight="500" fill="#FFFFFF" letter-spacing="6">KWORKS</text>

  <text x="340" y="122" text-anchor="middle" font-family="system-ui, -apple-system, sans-serif" font-size="13" font-weight="400" fill="#AFA9EC" letter-spacing="3">LOCAL-FIRST AI WORKSPACE</text>

  <rect x="60" y="145" width="560" height="2" fill="#D3D1C7" opacity="0.5"/>

  <rect x="140" y="195" width="400" height="2" fill="#D3D1C7" opacity="0.3"/>
  <rect x="140" y="155" width="400" height="40" rx="2" fill="none" stroke="#D3D1C7" stroke-width="0.3" opacity="0.3"/>

  <line x1="180" y1="195" x2="180" y2="155" stroke="#D3D1C7" stroke-width="0.3" opacity="0.3"/>
  <line x1="340" y1="195" x2="340" y2="155" stroke="#D3D1C7" stroke-width="0.3" opacity="0.3"/>
  <line x1="500" y1="195" x2="500" y2="155" stroke="#D3D1C7" stroke-width="0.3" opacity="0.3"/>

  <rect x="140" y="158" width="200" height="34" rx="0" fill="#EEEDFE"/>
  <text x="240" y="180" text-anchor="middle" font-family="monospace" font-size="13" font-weight="500" fill="#534AB7">qiongqi</text>

  <rect x="340" y="158" width="160" height="34" rx="0" fill="#E6F1FB"/>
  <text x="420" y="180" text-anchor="middle" font-family="monospace" font-size="13" font-weight="500" fill="#378ADD">frontend</text>

  <rect x="500" y="158" width="40" height="34" rx="0" fill="#FAECE7"/>
  <text x="520" y="180" text-anchor="middle" font-family="monospace" font-size="13" font-weight="500" fill="#D85A30">desk</text>

  <g transform="translate(120, 210)">
    <circle cx="60" cy="50" r="38" fill="#26215C"/>
    <circle cx="60" cy="50" r="30" fill="none" stroke="#7F77DD" stroke-width="1.5"/>
    <circle cx="60" cy="50" r="22" fill="none" stroke="#AFA9EC" stroke-width="0.5" stroke-dasharray="3 2"/>
    <text x="60" y="46" text-anchor="middle" font-family="monospace" font-size="11" fill="#CECBF6">TYPE</text>
    <text x="60" y="60" text-anchor="middle" font-family="monospace" font-size="11" fill="#CECBF6">SCRIPT</text>
    <rect x="15" y="95" width="90" height="18" rx="3" fill="#EEEDFE"/>
    <text x="60" y="108" text-anchor="middle" font-family="monospace" font-size="10" fill="#534AB7">Port :9193</text>
    <text x="60" y="125" text-anchor="middle" font-family="system-ui, -apple-system, sans-serif" font-size="11" font-weight="400" fill="#5F5E5A">API Gateway</text>
  </g>

  <g transform="translate(255, 210)">
    <circle cx="60" cy="50" r="38" fill="#0C447C"/>
    <circle cx="60" cy="50" r="30" fill="none" stroke="#378ADD" stroke-width="1.5"/>
    <circle cx="60" cy="50" r="22" fill="none" stroke="#85B7EB" stroke-width="0.5" stroke-dasharray="3 2"/>
    <text x="60" y="46" text-anchor="middle" font-family="monospace" font-size="11" fill="#B5D4F4">NEXT</text>
    <text x="60" y="60" text-anchor="middle" font-family="monospace" font-size="11" fill="#B5D4F4">.JS</text>
    <rect x="15" y="95" width="90" height="18" rx="3" fill="#E6F1FB"/>
    <text x="60" y="108" text-anchor="middle" font-family="monospace" font-size="10" fill="#185FA5">Port :9192</text>
    <text x="60" y="125" text-anchor="middle" font-family="system-ui, -apple-system, sans-serif" font-size="11" font-weight="400" fill="#5F5E5A">Web UI</text>
  </g>

  <g transform="translate(390, 210)">
    <circle cx="60" cy="50" r="38" fill="#4A1B0C"/>
    <circle cx="60" cy="50" r="30" fill="none" stroke="#D85A30" stroke-width="1.5"/>
    <circle cx="60" cy="50" r="22" fill="none" stroke="#F0997B" stroke-width="0.5" stroke-dasharray="3 2"/>
    <text x="60" y="46" text-anchor="middle" font-family="monospace" font-size="10" fill="#F5C4B3">ELEC</text>
    <text x="60" y="60" text-anchor="middle" font-family="monospace" font-size="10" fill="#F5C4B3">TRON</text>
    <rect x="15" y="95" width="90" height="18" rx="3" fill="#FAECE7"/>
    <text x="60" y="108" text-anchor="middle" font-family="monospace" font-size="10" fill="#993C1D">Desktop</text>
    <text x="60" y="125" text-anchor="middle" font-family="system-ui, -apple-system, sans-serif" font-size="11" font-weight="400" fill="#5F5E5A">Shell</text>
  </g>

  <line x1="218" y1="250" x2="255" y2="250" stroke="#888780" stroke-width="1" opacity="0.5"/>
  <line x1="353" y1="250" x2="390" y2="250" stroke="#888780" stroke-width="1" opacity="0.5"/>

  <circle cx="218" cy="250" r="2" fill="#7F77DD"/>
  <circle cx="255" cy="250" r="2" fill="#378ADD"/>
  <circle cx="353" cy="250" r="2" fill="#378ADD"/>
  <circle cx="390" cy="250" r="2" fill="#D85A30"/>

  <rect x="0" y="360" width="680" height="80" fill="#26215C" opacity="0.15"/>

  <rect x="60" y="375" width="95" height="22" rx="4" fill="#EEEDFE"/>
  <text x="107" y="390" text-anchor="middle" font-family="monospace" font-size="10" fill="#534AB7">pnpm</text>

  <rect x="168" y="375" width="105" height="22" rx="4" fill="#E6F1FB"/>
  <text x="220" y="390" text-anchor="middle" font-family="monospace" font-size="10" fill="#185FA5">TypeScript</text>

  <rect x="286" y="375" width="100" height="22" rx="4" fill="#EEEDFE"/>
  <text x="336" y="390" text-anchor="middle" font-family="monospace" font-size="10" fill="#534AB7">Next.js</text>

  <rect x="399" y="375" width="105" height="22" rx="4" fill="#FAECE7"/>
  <text x="451" y="390" text-anchor="middle" font-family="monospace" font-size="10" fill="#993C1D">Electron</text>

  <rect x="517" y="375" width="100" height="22" rx="4" fill="#E6F1FB"/>
  <text x="567" y="390" text-anchor="middle" font-family="monospace" font-size="10" fill="#185FA5">React</text>

  <text x="340" y="420" text-anchor="middle" font-family="monospace" font-size="10" fill="#B4B2A9">cd qiongqi &amp;&amp; pnpm run build &amp;&amp; cd .. &amp;&amp; ./start.sh start</text>

  <rect x="0" y="0" width="4" height="440" fill="#7F77DD" opacity="0.3"/>
  <rect x="676" y="0" width="4" height="440" fill="#7F77DD" opacity="0.3"/>
</svg>